# xmcd
#
# Track frame offsets: 
#        150
#        2542
#        15667
#        30007
#        38340
#        59350
#        76815
#        88630
#        174997
#
# Disc length: 2532 seconds
#
# Revision: 9
# Processed by: cddbd v1.5.2PL0 Copyright (c) Steve Scherf et al.
# Submitted via: ExactAudioCopyFreeDBPlugin 1.0
#
DISCID=4b09e209
DTITLE=James Brown - Live at the Apollo Volume II (Deluxe Edition)
DYEAR=2001
DGENRE=Soul
TTITLE0=Introduction to the James Brown Show (by MC Frankie Crocker)
TTITLE1=Think (duet with Marva Whitney)
TTITLE2=I Wanna Be Around
TTITLE3=James Brown (Thanks)
TTITLE4=That's Life
TTITLE5=Kansas City
TTITLE6=Sweet Soul Music - Bobby Byrd
TTITLE7=It's a Man's Man's Man's World
TTITLE8=Caravan (The James Brown Band featuring The J.B. Dancers)
EXTD=YEAR: 2001
EXTT0=
EXTT1=
EXTT2=
EXTT3=
EXTT4=
EXTT5=
EXTT6=
EXTT7=
EXTT8=
PLAYORDER=
